<svg width="181" height="140" viewBox="0 0 181 140" fill="none" xmlns="http://www.w3.org/2000/svg">
    <path opacity="0.8"
          d="M80.7188 70.0215C81.0664 64.6328 83.6738 59.2441 88.3672 56.1152C87.498 54.377 85.4121 52.9863 83.5 52.8125H44.5625C41.4336 52.8125 39 55.4199 39 58.375V119.562C39 122.691 41.4336 125.125 44.5625 125.125H73.7656C73.0703 123.734 72.375 121.301 72.375 119.562V80.625C72.375 75.9316 76.0254 71.0645 80.7188 70.0215ZM118.266 95.9219V80.625H129.564H129.738C131.998 80.625 135.475 79.4082 137.387 77.8438C139.82 75.7578 141.906 71.4121 141.906 68.2832C141.906 68.1094 141.906 68.1094 141.906 68.1094C141.732 65.6758 140.516 62.1992 139.125 60.1133C138.082 59.0703 136.344 57.5059 134.953 56.8105C133.389 56.1152 130.955 55.4199 129.391 55.4199C129.391 55.4199 129.391 55.4199 129.217 55.4199C124.176 55.4199 120.525 58.7227 118.266 61.5039C116.354 63.9375 114.963 66.7188 114.094 68.6309C113.225 66.7188 111.66 63.9375 109.748 61.5039C107.488 58.7227 103.838 55.5938 98.7969 55.5938C98.623 55.5938 98.623 55.5938 98.623 55.5938C97.0586 55.5938 94.625 56.1152 93.0605 56.8105C91.6699 57.5059 89.9316 59.0703 88.8887 60.1133C87.498 62.1992 86.2812 65.6758 86.2812 68.1094H86.1074C86.1074 71.4121 88.1934 75.7578 90.627 77.8438C92.5391 79.4082 96.0156 80.625 98.4492 80.625H109.922V95.9219H77.9375V104.266H109.922V125.125H118.266V104.266H150.25V95.9219H118.266ZM129.217 63.9375C132.346 63.9375 133.562 66.3711 133.562 68.1094C133.562 69.3262 132.867 70.7168 131.998 71.4121C131.477 71.9336 130.434 72.2812 129.738 72.2812H129.564H121.568C123.133 68.8047 126.088 63.9375 129.217 63.9375ZM98.4492 72.2812H98.2754C97.5801 72.2812 96.5371 71.9336 96.0156 71.4121C95.1465 70.7168 94.4512 69.3262 94.4512 68.1094H94.625C94.625 66.3711 95.668 63.9375 98.7969 63.9375C101.926 63.9375 104.881 68.6309 106.445 72.2812H98.4492Z"
          fill="#FFDC61"/>
    <path opacity="0.8"
          d="M43.6934 45.1641C43.3457 45.6855 43.1719 46.3809 43.1719 46.9023C43.1719 47.5977 43.6934 48.6406 44.2148 48.9883L49.6035 52.8125H78.2852L83.6738 48.9883C84.3691 48.6406 84.8906 47.5977 84.8906 46.9023C84.8906 46.3809 84.543 45.6855 84.3691 45.1641L82.6309 42.9043C82.2832 42.3828 81.2402 41.8613 80.3711 41.8613C79.8496 41.8613 79.1543 42.0352 78.8066 42.3828L73.2441 46.207L75.1562 40.9922C75.3301 40.6445 75.3301 40.2969 75.3301 39.9492C75.3301 38.9062 74.6348 37.6895 73.5918 37.3418L70.9844 36.4727C70.8105 36.2988 70.2891 36.2988 69.9414 36.2988C68.8984 36.2988 67.8555 36.9941 67.334 38.0371L64.0312 47.25L60.5547 38.0371C60.0332 36.9941 58.9902 36.2988 57.9473 36.2988C57.5996 36.2988 57.0781 36.2988 56.9043 36.4727L54.2969 37.3418C53.2539 37.6895 52.5586 38.9062 52.5586 39.9492C52.5586 40.2969 52.5586 40.6445 52.7324 40.9922L54.6445 46.207L49.082 42.209C48.7344 42.0352 48.0391 41.8613 47.5176 41.8613C46.6484 41.8613 45.6055 42.3828 45.2578 42.9043L43.6934 45.1641ZM77.9375 80.625V95.9219H109.922V80.625H98.4492H98.2754C96.0156 80.625 92.5391 79.4082 90.627 77.8438C89.7578 77.1484 88.8887 75.9316 88.3672 75.0625H83.5C80.3711 75.0625 77.9375 77.6699 77.9375 80.625ZM118.266 125.125H144.688C147.643 125.125 150.25 122.691 150.25 119.562V104.266H118.266V125.125ZM144.688 75.0625H139.82C139.125 75.9316 138.082 77.1484 137.387 77.8438C135.475 79.4082 131.998 80.625 129.564 80.625H118.266V95.9219H150.25V80.625C150.25 77.6699 147.643 75.0625 144.688 75.0625ZM77.9375 104.266V119.562C77.9375 122.691 80.3711 125.125 83.5 125.125H109.922V104.266H77.9375Z"
          fill="#FF624D"/>
    <path fill-rule="evenodd" clip-rule="evenodd"
          d="M0.854547 83.1508C0.884812 83.0455 0.917936 82.9408 0.953952 82.8368L1.88065 80.1606L4.40035 72.8844C4.40475 72.8715 4.40918 72.8586 4.41364 72.8457C4.41805 72.833 4.42249 72.8203 4.42697 72.8075L4.90826 71.4176L5.04863 71.4662C8.52328 65.5179 19.8984 63.8217 31.6986 67.9079C43.4158 71.9652 51.3778 80.3575 50.4401 87.1843L49.902 89.1967L46.6296 98.6469L46.6279 98.6518C46.257 99.7229 45.6062 100.657 44.7199 101.448C43.5348 102.509 41.9319 103.318 40.0289 103.86L40.0371 103.837C38.1293 104.373 35.9097 104.644 33.4833 104.639C31.4795 104.646 29.3684 104.474 27.1587 104.099L27.17 104.066C26.1904 103.897 25.1948 103.69 24.1882 103.445L24.1805 103.467C23.8258 103.369 23.4709 103.27 23.1167 103.17C22.1929 102.922 21.2615 102.642 20.3263 102.329C20.1628 102.275 19.9996 102.219 19.8368 102.163C19.6224 102.089 19.4104 102.013 19.2007 101.937C18.3879 101.643 17.5935 101.332 16.8192 101.006C16.4098 100.837 16.0092 100.668 15.6167 100.502L15.6236 100.482C14.68 100.053 13.7693 99.6008 12.8951 99.1294L12.8857 99.1566C10.5297 97.8875 8.49955 96.5027 6.78177 95.0406C5.22402 93.737 3.92201 92.3758 2.92131 91.0036L2.9191 91.01C0.976025 88.3266 0.157992 85.5739 0.854547 83.1508Z"
          fill="white"/>
    <path fill-rule="evenodd" clip-rule="evenodd"
          d="M41.7698 95.3748C40.1224 100.132 31.1104 101.274 21.6768 98.0077C12.1763 94.7179 5.86716 88.2707 7.51463 83.513L10.4801 74.9492L27.6077 80.8801L44.7353 86.811L41.7698 95.3748Z"
          fill="white"/>
    <path opacity="0.8"
          d="M7.51451 83.5104C6.86581 85.3837 7.46774 87.5403 8.98836 89.6403L10.4943 85.2915C9.50108 84.0485 8.66488 82.7849 8.20953 81.5033L7.51451 83.5104ZM23.9007 91.5823C33.3343 94.8489 42.5111 93.2313 44.3645 87.8789C46.1947 82.5934 40.0066 75.5803 30.573 72.3137C21.0725 69.0239 11.9395 70.7316 10.1093 76.0171C8.25587 81.3695 14.4003 88.2925 23.9007 91.5823ZM10.7123 91.586C12.2175 93.0812 14.1268 94.4917 16.4633 95.7503L17.9692 91.4015C15.6996 90.166 13.7672 88.8225 12.2182 87.2372L10.7123 91.586ZM36.8207 99.278C39.3144 98.568 41.121 97.2455 41.7697 95.3722L42.4647 93.3651C41.2475 94.0675 39.8089 94.5434 38.3034 94.9961L36.8207 99.278ZM27.168 99.4571C29.7156 99.8897 32.0882 99.962 34.2628 99.7409L35.7686 95.3921C33.5041 95.6569 31.1546 95.5177 28.6739 95.1083L27.168 99.4571ZM19.9943 92.4774L18.5116 96.7593C19.492 97.1737 20.5393 97.6113 21.6767 98.0051C22.7471 98.3758 23.8408 98.6796 24.9344 98.9834L26.4171 94.7015C25.4573 94.444 24.0291 94.0244 23.1594 93.7232C22.2227 93.3989 20.8409 92.8454 19.9943 92.4774Z"
          fill="#FC9245"/>
    <path opacity="0.8"
          d="M143.65 54.7263C144.103 56.4167 145.61 57.6951 147.761 58.4776L146.71 54.5535C145.369 54.1364 144.132 53.6266 143.165 52.9152L143.65 54.7263ZM159.623 52.517C168.135 50.2362 174.042 44.5122 172.748 39.6826C171.47 34.9133 163.476 32.8495 154.964 35.1304C146.391 37.4274 140.56 43.1956 141.838 47.9648C143.132 52.7944 151.05 54.8141 159.623 52.517ZM149.984 59.0466C151.824 59.3947 153.918 59.4808 156.249 59.2445L155.197 55.3204C152.927 55.5405 150.85 55.5148 148.933 55.1226L149.984 59.0466ZM172.875 51.7483C174.347 49.9953 175.013 48.1345 174.56 46.4441L174.074 44.633C173.532 45.7488 172.716 46.8086 171.84 47.8846L172.875 51.7483ZM165.908 56.6563C167.984 55.7117 169.754 54.5904 171.235 53.3526L170.183 49.4286C168.659 50.7428 166.873 51.8038 164.857 52.7322L165.908 56.6563ZM157.21 55.1046L158.245 58.9683C159.167 58.786 160.149 58.5876 161.176 58.3126C162.141 58.0538 163.091 57.7346 164.041 57.4154L163.006 53.5517C162.177 53.8385 160.925 54.2386 160.14 54.4489C159.295 54.6754 158.011 54.9547 157.21 55.1046Z"
          fill="#FC9245"/>
    <path opacity="0.8"
          d="M71.5702 12.8936C70.6501 13.8289 70.397 15.289 70.7091 16.9763L72.8451 14.805C72.6047 13.7797 72.464 12.7868 72.5561 11.8914L71.5702 12.8936ZM79.0705 22.375C83.7806 27.0084 89.7253 28.6495 92.3542 25.977C94.9502 23.338 93.2446 17.3876 88.5344 12.7542C83.7909 8.08796 77.8467 6.51314 75.2507 9.15217C72.6218 11.8246 74.3269 17.7087 79.0705 22.375ZM71.1866 18.6292C71.6613 19.9507 72.4017 21.3363 73.4405 22.7526L75.5765 20.5812C74.5711 19.1978 73.7978 17.8456 73.3226 16.4578L71.1866 18.6292ZM84.6057 30.6465C86.298 30.9308 87.7537 30.6538 88.6738 29.7184L89.6596 28.7163C88.7324 28.7902 87.7373 28.6658 86.7088 28.5086L84.6057 30.6465ZM78.7854 28.0103C80.1851 28.9929 81.5827 29.7104 82.9453 30.1962L85.0812 28.0249C83.6524 27.5396 82.2877 26.7887 80.9214 25.839L78.7854 28.0103ZM76.4812 21.7998L74.3781 23.9377C74.8463 24.4641 75.3479 25.0232 75.9158 25.5819C76.4503 26.1077 77.0176 26.6 77.585 27.0924L79.6881 24.9545C79.1875 24.5278 78.4532 23.8711 78.0189 23.4439C77.5512 22.9839 76.8826 22.2604 76.4812 21.7998Z"
          fill="#FC9245"/>
</svg>
