<svg xmlns="http://www.w3.org/2000/svg" width="100" height="100" fill="none" viewBox="0 0 100 100">
    <path fill="#BDBCBF" d="M64.438 17.25H35.561c-3.48 0-6.187 2.836-6.187 6.188v53.624c0 3.481 2.707 6.188 6.188 6.188h28.874c3.352 0 6.188-2.707 6.188-6.188V23.438c0-3.352-2.836-6.188-6.188-6.188zM50 79.125c-2.32 0-4.125-1.805-4.125-4.125 0-2.191 1.805-4.125 4.125-4.125 2.191 0 4.125 1.934 4.125 4.125 0 2.32-1.934 4.125-4.125 4.125zm14.438-13.922c0 .903-.774 1.547-1.547 1.547H37.109c-.902 0-1.547-.644-1.547-1.547V24.984c0-.773.645-1.547 1.547-1.547h25.782c.773 0 1.547.774 1.547 1.547v40.22z" opacity=".6"/>
    <path fill="#BDBCBF" fill-rule="evenodd" d="M35.563 17.15h28.875c3.407 0 6.287 2.88 6.287 6.287v53.625c0 3.537-2.882 6.288-6.287 6.288H35.563c-3.536 0-6.288-2.752-6.288-6.288V23.437c0-3.405 2.75-6.287 6.288-6.287zM45.975 75c0 2.265 1.76 4.025 4.025 4.025 2.139 0 4.025-1.762 4.025-4.025 0-2.136-1.888-4.025-4.025-4.025-2.263 0-4.025 1.887-4.025 4.025zm16.916-8.35c.724 0 1.447-.605 1.447-1.447V24.984c0-.354-.178-.717-.454-.993s-.639-.454-.993-.454H37.11c-.842 0-1.447.724-1.447 1.447v40.219c0 .847.6 1.447 1.447 1.447H62.89zm-27.328-49.4h28.875c3.352 0 6.187 2.836 6.187 6.187v53.625c0 3.48-2.835 6.188-6.187 6.188H35.563c-3.48 0-6.188-2.707-6.188-6.188V23.437c0-3.351 2.707-6.187 6.188-6.187zM45.875 75c0 2.32 1.805 4.125 4.125 4.125 2.192 0 4.125-1.805 4.125-4.125 0-2.192-1.933-4.125-4.125-4.125-2.32 0-4.125 1.933-4.125 4.125zm17.016-8.25c.773 0 1.547-.645 1.547-1.547V24.984c0-.773-.774-1.547-1.547-1.547H37.11c-.903 0-1.547.774-1.547 1.547v40.219c0 .902.644 1.547 1.547 1.547H62.89z" clip-rule="evenodd" opacity=".6"/>
    <path fill="#FF624D" stroke="#FF624D" stroke-width=".5" d="M71.526 43l8.26-8.182h0c.567-.567.567-1.585 0-2.151l-1.953-1.953c-.566-.566-1.584-.566-2.15 0h-.001l-8.183 8.26-8.26-8.26c-.566-.566-1.584-.566-2.15 0l-1.953 1.953c-.567.566-.567 1.584 0 2.15v.001l8.26 8.183-8.26 8.26c-.567.566-.567 1.584 0 2.15l1.953 1.953c.566.567 1.584.567 2.15 0l8.26-8.26 8.183 8.26h0c.567.567 1.585.567 2.151 0l1.953-1.953c.567-.566.567-1.584 0-2.15L71.526 43z"/>
</svg>
