<svg xmlns="http://www.w3.org/2000/svg" width="100" height="100" fill="none" viewBox="0 0 100 100">
    <path fill="#BDBCBF" d="M62.375 49.219c0-.774-.773-1.547-1.547-1.547H39.172c-.902 0-1.547.773-1.547 1.547v3.61c0 .901.645 1.546 1.547 1.546h21.656c.774 0 1.547-.645 1.547-1.547v-3.61zM60.828 58.5H39.172c-.902 0-1.547.773-1.547 1.547v3.61c0 .902.645 1.546 1.547 1.546h21.656c.774 0 1.547-.644 1.547-1.547v-3.61c0-.773-.773-1.546-1.547-1.546zM74.75 34.266c0-1.547-.773-3.223-1.934-4.383l-10.699-10.7c-1.16-1.16-2.836-1.933-4.383-1.933H31.437c-3.48 0-6.187 2.836-6.187 6.188v53.624c0 3.481 2.707 6.188 6.188 6.188h37.124c3.352 0 6.188-2.707 6.188-6.188V34.267zm-16.5-10.313l9.797 9.797H58.25v-9.797zm10.313 53.11H31.437V23.437h20.625v13.407c0 1.804 1.29 3.093 3.094 3.093h13.407v37.126z" opacity=".6"/>
    <path fill="#4BDB9B" d="M61.516 53.375c.78.781 2.109.781 2.89 0l22.969-22.969c.781-.781.781-2.11 0-2.89l-2.813-2.813c-.78-.781-2.03-.781-2.812 0L63 43.453l-8.828-8.75c-.781-.781-2.031-.781-2.813 0l-2.812 2.813c-.781.78-.781 2.109 0 2.89l12.969 12.969z"/>
</svg>
