<svg xmlns="http://www.w3.org/2000/svg" width="100" height="100" fill="none" viewBox="0 0 100 100">
    <path fill="#BDBCBF" d="M64.438 17.25H35.561c-3.48 0-6.187 2.836-6.187 6.188v53.624c0 3.481 2.707 6.188 6.188 6.188h28.874c3.352 0 6.188-2.707 6.188-6.188V23.438c0-3.352-2.836-6.188-6.188-6.188zM50 79.125c-2.32 0-4.125-1.805-4.125-4.125 0-2.191 1.805-4.125 4.125-4.125 2.191 0 4.125 1.934 4.125 4.125 0 2.32-1.934 4.125-4.125 4.125zm14.438-13.922c0 .903-.774 1.547-1.547 1.547H37.109c-.902 0-1.547-.644-1.547-1.547V24.984c0-.773.645-1.547 1.547-1.547h25.782c.773 0 1.547.774 1.547 1.547v40.22z" opacity=".6"/>
    <path fill="#BDBCBF" fill-rule="evenodd" d="M35.563 17.15h28.875c3.407 0 6.287 2.88 6.287 6.287v53.625c0 3.537-2.882 6.288-6.287 6.288H35.563c-3.536 0-6.288-2.752-6.288-6.288V23.437c0-3.405 2.75-6.287 6.288-6.287zM45.975 75c0 2.265 1.76 4.025 4.025 4.025 2.139 0 4.025-1.762 4.025-4.025 0-2.136-1.888-4.025-4.025-4.025-2.263 0-4.025 1.887-4.025 4.025zm16.916-8.35c.724 0 1.447-.605 1.447-1.447V24.984c0-.354-.178-.717-.454-.993s-.639-.454-.993-.454H37.11c-.842 0-1.447.724-1.447 1.447v40.219c0 .847.6 1.447 1.447 1.447H62.89zm-27.328-49.4h28.875c3.352 0 6.187 2.836 6.187 6.187v53.625c0 3.48-2.835 6.188-6.187 6.188H35.563c-3.48 0-6.188-2.707-6.188-6.188V23.437c0-3.351 2.707-6.187 6.188-6.187zM45.875 75c0 2.32 1.805 4.125 4.125 4.125 2.192 0 4.125-1.805 4.125-4.125 0-2.192-1.933-4.125-4.125-4.125-2.32 0-4.125 1.933-4.125 4.125zm17.016-8.25c.773 0 1.547-.645 1.547-1.547V24.984c0-.773-.774-1.547-1.547-1.547H37.11c-.903 0-1.547.774-1.547 1.547v40.219c0 .902.644 1.547 1.547 1.547H62.89z" clip-rule="evenodd" opacity=".6"/>
    <path fill="#4BDB9B" d="M78.151 25.563L57.605 46.108l-7.5-7.578c-.391-.312-1.016-.312-1.329 0l-2.265 2.266c-.313.312-.313.937 0 1.328l10.468 10.39c.391.391.938.391 1.329 0l23.437-23.437c.313-.312.313-.937 0-1.328l-2.266-2.188c-.312-.39-.937-.39-1.328 0z"/>
    <path fill="#4BDB9B" fill-rule="evenodd" d="M50.105 38.531l7.5 7.578L78.15 25.563c.391-.391 1.016-.391 1.329 0l2.265 2.187c.313.39.313 1.016 0 1.328L58.308 52.516c-.391.39-.938.39-1.328 0l-10.47-10.39c-.312-.392-.312-1.017 0-1.329l2.266-2.266c.313-.312.938-.312 1.328 0zm6.169 14.693l-.002-.001-10.506-10.428-.036-.045c-.314-.393-.454-.874-.454-1.318 0-.437.138-.953.528-1.342l2.265-2.266c.39-.39.905-.527 1.342-.527.444 0 .925.14 1.318.454l.046.036 6.833 6.905 19.836-19.837c.717-.716 2.008-.852 2.768.025l2.274 2.195.04.05c.314.393.454.874.454 1.319 0 .436-.138.952-.528 1.341L59.015 53.223c-.365.364-.847.586-1.371.586s-1.005-.22-1.37-.585z" clip-rule="evenodd"/>
</svg>
