<svg xmlns="http://www.w3.org/2000/svg" width="200" height="180" fill="none" viewBox="0 0 200 180">
    <circle cx="100" cy="90" r="80" fill="#fff"/>
    <circle cx="100" cy="90" r="83" stroke="#fff" stroke-opacity=".2" stroke-width="6"/>
    <mask id="8bykcwu0ra" width="160" height="160" x="20" y="10" maskUnits="userSpaceOnUse">
        <circle cx="100" cy="90" r="80" fill="#fff"/>
    </mask>
    <g mask="url(#8bykcwu0ra)">
        <rect width="39.17" height="39.17" x="57" y="23" fill="#FF624D" fill-opacity=".6" rx="19.585"/>
        <path fill="#fff" d="M69.913 41.114c-.2-.749-.163-1.57.113-2.463.274-.902.805-1.728 1.592-2.48.787-.751 1.795-1.292 3.025-1.621 1.143-.306 2.209-.364 3.198-.173.987.184 1.814.575 2.48 1.173.676.596 1.128 1.32 1.356 2.171.18.67.199 1.295.058 1.873-.133.576-.339 1.1-.618 1.572-.273.462-.779 1.257-1.516 2.383-.202.316-.36.591-.476.825-.109.223-.182.425-.218.603-.039.171-.06.342-.066.512 0 .16.01.445.026.855.07.86-.289 1.395-1.077 1.606-.41.11-.793.07-1.148-.123-.348-.194-.593-.555-.734-1.083-.178-.662-.228-1.261-.152-1.797.074-.543.232-1.042.474-1.495.24-.462.58-1.022 1.02-1.68.386-.577.66-1.005.821-1.285.167-.29.289-.593.365-.909.084-.318.082-.639-.005-.962-.168-.63-.547-1.099-1.137-1.406-.58-.309-1.242-.364-1.983-.165-.867.232-1.446.624-1.738 1.175-.294.543-.468 1.279-.524 2.206-.03.963-.418 1.544-1.167 1.745-.442.118-.857.065-1.247-.16-.384-.235-.625-.534-.722-.897zm9.243 11.413c-.481.129-.944.088-1.39-.122-.438-.22-.733-.61-.883-1.17-.133-.497-.072-.96.184-1.393.257-.432.637-.715 1.141-.85.497-.133.96-.076 1.39.172.43.248.71.62.844 1.117.148.552.087 1.033-.184 1.444-.27.41-.637.677-1.102.802z"/>
        <path fill="#fff" d="M70.026 38.65l.075.024-.075-.023zm7.815-4.273l-.015.077.015-.077zm2.48 1.173l-.052.058h.001l.052-.058zm1.414 4.044l-.076-.019v.001l.076.018zm-.618 1.572l.067.04-.067-.04zm-1.516 2.383l-.065-.043v.001l.065.042zm-.476.825l-.07-.035.07.035zm-.218.603l.076.018v-.002l-.076-.016zm-.066.512l-.078-.002v.002h.078zm.026.855l-.078.003v.003l.078-.006zm-2.225 1.483l-.038.069.038-.069zm-.886-2.88l.077.011-.077-.01zm.474-1.495l.069.037v-.001l-.07-.036zm1.02-1.68l-.066-.044.065.044zm1.186-2.194l-.076-.02v.002l.076.018zm-1.142-2.368l-.036.07.036-.07zm-3.72 1.01l.068.037-.069-.037zm-.525 2.206l-.078-.005v.003l.078.002zm-2.414 1.585l-.04.066v.002l.04-.068zm7.132 10.394l-.035.07h.001l.034-.07zm1.83-3.24l-.038.067.039-.068zm-9.608-8.071c-.196-.732-.16-1.538.112-2.42l-.15-.046c-.28.904-.319 1.74-.113 2.507l.15-.041zm.112-2.42c.27-.887.792-1.702 1.57-2.446l-.108-.113c-.795.76-1.333 1.597-1.612 2.513l.15.046zm1.57-2.446c.777-.741 1.773-1.276 2.992-1.602l-.04-.152c-1.24.332-2.261.879-3.06 1.64l.109.114zm2.992-1.602c1.133-.304 2.187-.36 3.163-.172l.03-.154c-1.003-.194-2.081-.135-3.234.174l.041.152zm3.163-.172c.975.181 1.788.566 2.444 1.154l.104-.116c-.68-.61-1.52-1.006-2.52-1.192l-.028.154zm2.444 1.155c.664.586 1.107 1.297 1.331 2.133l.151-.04c-.232-.867-.692-1.605-1.378-2.21l-.104.117zm1.331 2.133c.177.66.195 1.27.058 1.834l.152.036c.144-.593.124-1.23-.059-1.91l-.15.04zm.058 1.834c-.132.57-.335 1.086-.61 1.55l.135.08c.284-.48.493-1.01.627-1.594l-.152-.036zm-.61 1.55c-.272.46-.776 1.254-1.513 2.38l.13.086c.738-1.127 1.244-1.922 1.519-2.386l-.135-.08zm-1.514 2.381c-.203.318-.364.595-.48.832l.14.07c.114-.23.27-.503.472-.817l-.132-.085zm-.48.833c-.111.227-.187.434-.225.622l.154.031c.034-.17.105-.365.212-.585l-.141-.069zm-.225.62c-.04.176-.062.351-.067.527l.156.005c.005-.166.026-.331.064-.497l-.153-.035zm-.067.53c0 .161.01.448.026.857l.157-.006c-.017-.41-.026-.694-.026-.852h-.157zm.026.86c.034.418-.037.748-.204.997-.166.248-.435.426-.815.528l.04.151c.407-.109.713-.305.906-.592.192-.287.265-.655.23-1.096l-.157.012zm-1.02 1.525c-.391.105-.753.065-1.09-.117l-.075.138c.375.202.778.245 1.206.13l-.04-.151zm-1.09-.116c-.322-.18-.557-.52-.695-1.035l-.152.04c.145.541.4.924.772 1.132l.076-.137zm-.695-1.035c-.176-.655-.225-1.243-.15-1.766l-.156-.022c-.078.549-.025 1.159.154 1.828l.152-.04zm-.15-1.766c.072-.535.227-1.025.465-1.47l-.139-.073c-.246.462-.407.97-.482 1.522l.156.02zm.465-1.47c.238-.458.576-1.015 1.016-1.673l-.13-.087c-.442.66-.784 1.223-1.025 1.688l.14.072zm1.015-1.673c.387-.576.662-1.006.825-1.289l-.136-.078c-.16.277-.433.704-.819 1.28l.13.087zm.825-1.289c.17-.296.295-.606.373-.93l-.152-.036c-.074.308-.193.604-.357.888l.136.078zm.373-.928c.087-.331.085-.666-.005-1.002l-.151.04c.083.31.084.618.004.922l.152.04zm-.005-1.002c-.175-.652-.568-1.138-1.176-1.455l-.073.139c.57.297.935.748 1.098 1.357l.151-.041zm-1.176-1.455c-.601-.32-1.283-.375-2.04-.172l.04.151c.726-.194 1.366-.139 1.927.16l.073-.139zm-2.04-.172c-.879.235-1.481.637-1.787 1.214l.138.074c.278-.525.834-.907 1.69-1.137l-.041-.151zm-1.787 1.214c-.301.557-.477 1.305-.533 2.238l.156.01c.056-.921.229-1.644.515-2.174l-.138-.074zm-.533 2.24c-.015.472-.117.843-.3 1.118-.184.273-.451.458-.81.554l.041.151c.39-.104.692-.31.898-.618.206-.307.312-.709.327-1.2l-.156-.004zm-1.11 1.672c-.421.113-.815.062-1.187-.152l-.078.136c.408.235.845.291 1.306.167l-.04-.15zm-1.185-.151c-.37-.227-.596-.51-.687-.85l-.151.04c.103.386.359.7.756.944l.082-.134zm8.46 10.507c-.464.124-.908.085-1.336-.117l-.067.142c.462.218.944.26 1.443.127l-.04-.152zm-1.334-.116c-.416-.209-.698-.578-.843-1.12l-.152.04c.155.577.462.988.925 1.22l.07-.14zm-.843-1.12c-.128-.477-.07-.92.176-1.333l-.135-.08c-.267.45-.331.937-.193 1.453l.152-.04zm.176-1.333c.245-.413.608-.685 1.093-.815l-.04-.151c-.523.14-.921.436-1.188.886l.135.08zm1.093-.815c.478-.128.92-.072 1.33.165l.079-.136c-.449-.259-.933-.318-1.45-.18l.041.151zm1.33.165c.412.237.68.592.808 1.07l.152-.041c-.139-.516-.433-.906-.881-1.165l-.078.136zm.808 1.07c.143.534.083.99-.173 1.38l.13.086c.285-.433.347-.938.195-1.507l-.152.04zm-.173 1.38c-.26.394-.612.65-1.058.77l.04.15c.485-.13.868-.408 1.149-.834l-.131-.087z"/>
        <path fill="#3E3A49" d="M86.514 94.987c2.127 0 3.852-1.725 3.852-3.852 0-2.128-1.725-3.852-3.852-3.852s-3.852 1.724-3.852 3.852c0 2.127 1.725 3.852 3.852 3.852zM114.415 94.987c2.127 0 3.852-1.725 3.852-3.852 0-2.128-1.725-3.852-3.852-3.852-2.128 0-3.852 1.724-3.852 3.852 0 2.127 1.724 3.852 3.852 3.852z"/>
        <path fill="#3E3A49" d="M140.736 154.965c-.241-3.448-.871-6.824-2.503-10.036-2.571-5.058-6.964-9.073-12.164-11.312-4.999-2.153-10.1-2.007-15.425-2.007v-5.778c9.065-3.081 16.3-10.158 19.596-19.121 5.939-.441 10.638-5.412 10.638-11.462 0-5.296-3.701-9.882-8.703-11.147V80.36c0-2.311-.252-4.622-.747-6.863l-.016-.073c-1.546-6.922-5.447-13.21-10.986-17.703-5.621-4.56-12.71-7.071-19.962-7.071-7.251 0-14.34 2.511-19.962 7.071-5.538 4.494-9.44 10.78-10.986 17.708l-.013.058c-.497 2.246-.75 4.56-.75 6.874v3.74c-5.001 1.266-8.703 5.852-8.703 11.148 0 6.05 4.699 11.021 10.639 11.462 3.296 8.964 10.53 16.041 19.595 19.121v5.779c-3.864 0-7.755-.239-11.54.695-4.507 1.112-8.712 3.483-11.928 6.839-4.463 4.657-6.954 11.136-6.806 17.58.109 4.735.04 9.483.04 14.221v1.092c0 1.081.876 1.957 1.957 1.957h76.913c1.081 0 1.957-.876 1.957-1.957v-9.294c.001-2.609.037-5.214-.141-7.779zm-9.229-52.684c.948-4.562.668-9.266.668-13.899 0-.012.01-.175 0-.179 2.807 1.126 4.789 3.897 4.789 7.045 0 3.463-2.333 6.392-5.51 7.296.019-.087.035-.175.053-.263zm-67.543-7.033c0-3.148 1.983-5.92 4.79-7.045 0 4.689-.297 9.456.668 14.078.018.088.034.176.053.263-3.177-.904-5.51-3.833-5.51-7.296zm10.007 74.834H63.964v-14.081c0-.316.01-.63.024-.942l.01-.208c.018-.314.04-.627.072-.937l.002-.016c.033-.323.075-.643.123-.961l.012-.086c.95-6.134 4.635-11.374 9.764-14.439v31.67zm42.354-34.558l-10.31 14.469-1.546-6.611 2.672-4.669c.384-.671.338-1.504-.119-2.128l-.777-1.061h10.08zm-15.071 5.598h-1.579l-1.86-3.25 1.719-2.348h1.862l1.718 2.348-1.86 3.25zm1.735 13.116l-2.524 3.544-1.859-2.608-.667-.937 2.153-9.202h.744l2.153 9.203zm-.601-22.628h-8.19v-4.723c.201.041.403.077.604.114 3.935.708 8.007.673 11.928-.114v4.723h-4.342zm-19.42-72.85c4.926-3.996 11.14-6.197 17.496-6.197 6.357 0 12.57 2.201 17.497 6.197 4.645 3.769 7.977 8.974 9.443 14.728l-.025.032c-2.319 2.881-7.106 1.174-7.106-2.502 0-1.08-.876-1.957-1.956-1.957-1.081 0-1.957.876-1.957 1.957 0 2.203-1.792 3.994-3.994 3.994-2.203 0-3.995-1.791-3.995-3.994 0-1.08-.876-1.957-1.956-1.957-1.081 0-1.957.876-1.957 1.957 0 1.377-.7 2.593-1.763 3.311-.637.431-1.405.683-2.231.683-1.79 0-3.308-1.182-3.814-2.807-.117-.375-.18-.774-.18-1.187 0-1.08-.876-1.956-1.957-1.956-1.08 0-1.956.876-1.956 1.956 0 2.203-1.792 3.995-3.995 3.995-2.202 0-3.994-1.792-3.994-3.995 0-1.08-.876-1.956-1.956-1.956-1.081 0-1.957.876-1.957 1.956 0 .413-.064.812-.18 1.187-.078.25-.18.49-.303.716-.184.339-.417.65-.688.92-1.634 1.634-4.489 1.477-5.935-.321l-.024-.031c1.466-5.755 4.798-10.96 9.443-14.729zm5.243 61.983c-6.946-3.425-12.229-9.815-14.42-17.22-.118-.399-.228-.802-.328-1.207-1.317-5.335-.795-11.114-.795-16.57V80.36c0-.82.036-1.639.107-2.454 1.64.923 3.613 1.237 5.457.863.863-.175 1.695-.496 2.453-.946.184-.109 2.057-1.455 1.927-1.603 1.451 1.657 3.581 2.705 5.951 2.705 2.37 0 4.5-1.048 5.951-2.705 1.45 1.657 3.58 2.705 5.951 2.705.889 0 1.744-.147 2.542-.419.266-.09.525-.195.778-.312 1.01-.47 1.905-1.146 2.63-1.975 1.451 1.657 3.581 2.706 5.951 2.706 2.37 0 4.5-1.049 5.951-2.706-.121.14 1.67 1.448 1.846 1.555.723.44 1.516.764 2.341.953 1.898.434 3.954.135 5.65-.822.072.815.108 1.635.108 2.455v5.386c0 9.661.438 19.168-5.956 27.116-4.843 6.021-12.19 9.868-19.879 10.524-4.875.415-9.825-.477-14.216-2.643zm4.03 14.781h2.443l-.777 1.061c-.457.624-.503 1.457-.12 2.128l2.673 4.669-1.546 6.609-10.308-14.467h7.636zm30.804 34.558H77.884v-33.475c.73-.248 1.48-.457 2.245-.622l16.124 22.629 2.619 3.676c.092.128.198.244.315.345.351.304.804.476 1.279.476.057 0 .113-.005.169-.01.022-.002.044-.001.066-.004.046-.006.09-.016.135-.025.032-.006.063-.009.094-.017.019-.004.038-.012.057-.017.428-.119.809-.378 1.072-.748l18.743-26.304c.765.164 1.513.374 2.243.621v33.475zm3.914 0v-31.669c5.128 3.064 8.812 8.305 9.763 14.439l.012.085c.048.318.09.639.123.961l.002.016c.031.31.054.623.071.937l.01.208c.015.312.024.626.024.942v14.081h-10.005z"/>
        <path fill="#3E3A49" d="M111.977 105.009c-.63-.878-1.852-1.081-2.73-.451-1.836 1.315-5.201 2.132-8.782 2.132-3.583 0-6.948-.818-8.784-2.133-.878-.629-2.1-.428-2.73.45-.63.878-.428 2.101.45 2.731 2.503 1.794 6.639 2.866 11.064 2.866 4.422 0 8.557-1.071 11.061-2.865.878-.629 1.081-1.851.451-2.73z"/>
    </g>
    <rect width="71" height="40" x="10" y="114" fill="#fff" rx="19.585"/>
    <rect width="71" height="40" x="10" y="114" fill="#00A2FF" fill-opacity=".4" rx="19.585"/>
    <path fill="#fff" stroke="#fff" stroke-width=".071" d="M40.397 135.504h0c.373-.365.556-.87.556-1.511 0-.561-.18-1.038-.542-1.428-.354-.399-.786-.6-1.294-.6-.509 0-.94.201-1.295.6-.346.391-.518.867-.518 1.428 0 .632.18 1.132.543 1.497.362.363.786.545 1.27.545s.91-.177 1.28-.531zm-10.632-.001h0l.001.001c.362.353.785.531 1.269.531.484 0 .911-.177 1.28-.531h0c.373-.365.557-.87.557-1.511 0-.561-.181-1.038-.543-1.428-.354-.399-.786-.6-1.294-.6s-.936.196-1.283.587c-.346.39-.518.872-.518 1.441 0 .64.176 1.145.531 1.51zm16.164-.013h0c.37.363.793.545 1.27.545.492 0 .919-.182 1.28-.545.372-.365.556-.865.556-1.497 0-.561-.18-1.038-.542-1.428-.354-.399-.786-.6-1.294-.6-.509 0-.94.201-1.295.6-.346.391-.518.867-.518 1.428 0 .632.18 1.132.543 1.497z"/>
    <path fill="#fff" stroke="#fff" stroke-width=".095" d="M65.727 132.201h0c.36-.353.669-.771.924-1.251.265-.484.397-1.047.397-1.686 0-.814-.23-1.567-.69-2.26-.451-.693-1.095-1.238-1.928-1.636-.834-.406-1.794-.608-2.88-.608-1.167 0-2.192.24-3.07.721-.878.48-1.547 1.088-2.006 1.825-.458.729-.689 1.452-.689 2.17 0 .357.148.688.438.993h0v.001c.3.299.666.449 1.095.449.364 0 .672-.108.922-.327.249-.218.436-.542.564-.968.267-.8.592-1.399.972-1.802h0c.375-.404.963-.61 1.774-.61.69 0 1.248.201 1.677.601v.001c.437.4.655.89.655 1.472 0 .297-.073.572-.218.825h0v.001c-.14.256-.315.491-.528.704-.207.207-.549.519-1.025.936h0c-.544.477-.977.891-1.299 1.243-.324.346-.584.753-.78 1.219-.196.462-.293 1.008-.293 1.638 0 .507.132.897.405 1.162v.001c.278.262.617.392 1.016.392.38 0 .69-.099.922-.302.231-.202.381-.503.453-.897.082-.364.141-.616.178-.756.044-.146.102-.288.175-.426h0v-.001c.073-.144.182-.301.329-.47.155-.177.358-.381.61-.61.916-.819 1.55-1.401 1.9-1.744zm-5.671 9.114v.001c.352.297.761.447 1.227.447.45 0 .849-.154 1.193-.459.346-.308.518-.732.518-1.264 0-.481-.165-.888-.494-1.218-.33-.329-.736-.494-1.218-.494-.488 0-.902.165-1.239.494-.337.329-.505.736-.505 1.218 0 .539.171.967.518 1.275z"/>
    <rect width="39.17" height="39.17" x="152" y="83" fill="#fff" rx="19.585"/>
    <rect width="39.17" height="39.17" x="152" y="83" fill="#FFA24D" fill-opacity=".6" rx="19.585"/>
    <path fill="#fff" d="M166.791 97.832c.201-.749.644-1.441 1.329-2.077.688-.643 1.561-1.094 2.618-1.351 1.058-.258 2.201-.222 3.431.108 1.143.306 2.095.79 2.856 1.45.763.652 1.284 1.404 1.562 2.256.287.854.316 1.706.088 2.558-.18.67-.475 1.22-.886 1.65-.403.433-.844.784-1.321 1.053-.468.263-1.303.699-2.505 1.306-.333.172-.608.331-.824.476-.206.139-.37.277-.491.413-.119.129-.223.266-.313.411-.079.139-.214.39-.404.753-.37.78-.949 1.064-1.737.853-.41-.11-.721-.337-.933-.681-.204-.342-.235-.777-.093-1.305.177-.662.433-1.206.766-1.632.336-.434.722-.787 1.158-1.059.439-.279 1.013-.594 1.724-.944.622-.307 1.074-.541 1.353-.702.29-.168.547-.369.771-.605.231-.233.39-.512.477-.835.169-.63.075-1.226-.282-1.786-.349-.558-.894-.937-1.635-1.135-.867-.233-1.564-.183-2.092.148-.526.324-1.045.874-1.557 1.649-.507.819-1.135 1.128-1.884.927-.441-.118-.774-.372-.999-.762-.215-.395-.274-.774-.177-1.137zm2.298 14.505c-.481-.129-.862-.396-1.142-.8-.27-.411-.33-.896-.18-1.455.133-.497.418-.868.856-1.114.437-.246.908-.302 1.413-.166.497.133.869.414 1.117.844s.306.893.173 1.389c-.148.552-.442.938-.881 1.158-.439.221-.891.268-1.356.144z"/>
    <path fill="#fff" d="M168.12 95.755l.054.058-.054-.058zm8.905.206l-.052.06h.001l.051-.06zm1.562 2.257l-.074.024.074-.024zm-.798 4.208l-.057-.054v.001l.057.053zm-1.321 1.053l.038.068-.038-.068zm-2.505 1.306l-.035-.07h-.001l.036.07zm-.824.476l-.044-.065.044.065zm-.491.413l.058.054.001-.002-.059-.052zm-.313.411l-.066-.041-.002.002.068.039zm-.404.753l-.07-.036-.001.003.071.033zm-2.67.172l-.067.04.001.001.066-.041zm.673-2.937l.062.048-.062-.048zm1.158-1.059l.042.067-.042-.067zm1.724-.944l-.035-.071.035.071zm2.124-1.307l-.056-.055-.001.001.057.054zm.195-2.621l-.066.041.066-.041zm-3.727-.986l.041.066-.041-.066zm-1.557 1.648l-.066-.043-.001.002.067.041zm-2.883.165l-.069.038.001.001.068-.039zm.979 12.568l-.065.043.001.001.064-.044zm3.206-1.891l-.068.039.068-.039zm-4.286-11.794c.196-.732.63-1.412 1.307-2.04l-.107-.114c-.694.643-1.147 1.348-1.352 2.114l.152.04zm1.307-2.04c.677-.633 1.536-1.078 2.583-1.332l-.037-.153c-1.069.26-1.954.717-2.653 1.371l.107.114zm2.583-1.332c1.043-.254 2.173-.22 3.392.108l.04-.152c-1.24-.332-2.397-.37-3.469-.109l.037.153zm3.392.108c1.133.303 2.074.782 2.824 1.433l.103-.119c-.771-.669-1.734-1.157-2.887-1.466l-.04.151zm2.825 1.433c.753.644 1.265 1.384 1.539 2.22l.149-.048c-.284-.867-.814-1.63-1.586-2.291l-.102.119zm1.539 2.222c.282.84.31 1.676.086 2.512l.152.041c.232-.867.202-1.735-.09-2.603l-.148.05zm.086 2.512c-.177.66-.466 1.198-.867 1.617l.114.108c.421-.441.722-1.004.905-1.684l-.152-.041zm-.867 1.618c-.398.427-.833.773-1.303 1.038l.077.136c.485-.273.932-.629 1.34-1.067l-.114-.107zm-1.303 1.038c-.466.262-1.299.697-2.501 1.304l.071.14c1.202-.607 2.038-1.043 2.507-1.308l-.077-.136zm-2.502 1.304c-.335.174-.612.334-.832.481l.088.13c.213-.143.485-.3.816-.471l-.072-.14zm-.832.481c-.21.142-.379.284-.506.426l.118.104c.115-.13.273-.263.476-.4l-.088-.13zm-.505.425c-.122.132-.229.273-.321.423l.133.082c.087-.141.188-.273.304-.398l-.116-.107zm-.323.425c-.08.141-.216.393-.406.756l.139.072c.19-.363.325-.613.403-.75l-.136-.078zm-.407.759c-.18.379-.406.629-.675.761-.268.131-.59.151-.971.049l-.04.151c.407.11.769.093 1.08-.06.31-.152.558-.434.747-.834l-.141-.067zm-1.646.81c-.391-.105-.685-.32-.886-.646l-.133.082c.223.362.551.601.979.715l.04-.151zm-.885-.645c-.19-.318-.224-.729-.086-1.245l-.151-.04c-.145.54-.116.999.102 1.365l.135-.08zm-.086-1.245c.176-.654.427-1.188.753-1.604l-.123-.096c-.342.436-.602.99-.781 1.66l.151.04zm.753-1.604c.331-.427.71-.773 1.138-1.04l-.083-.133c-.445.277-.837.636-1.179 1.077l.124.096zm1.138-1.04c.435-.278 1.007-.592 1.716-.941l-.069-.141c-.712.351-1.289.668-1.731.949l.084.133zm1.716-.941c.623-.306 1.076-.541 1.359-.704l-.079-.136c-.277.16-.726.393-1.349.699l.069.141zm1.359-.704c.296-.171.559-.378.788-.619l-.114-.108c-.218.23-.469.427-.753.591l.079.136zm.786-.618c.242-.243.408-.534.498-.87l-.152-.04c-.083.31-.235.576-.457.8l.111.11zm.498-.87c.174-.652.077-1.27-.292-1.848l-.132.084c.345.542.435 1.115.272 1.724l.152.04zm-.291-1.848c-.361-.578-.925-.966-1.681-1.169l-.041.151c.725.195 1.252.563 1.589 1.101l.133-.083zm-1.681-1.169c-.879-.236-1.602-.19-2.155.158l.083.133c.503-.316 1.176-.369 2.031-.14l.041-.151zm-2.154.158c-.54.332-1.066.891-1.582 1.672l.131.086c.509-.77 1.02-1.31 1.533-1.625l-.082-.133zm-1.583 1.674c-.248.401-.522.67-.819.817-.295.145-.619.172-.977.076l-.041.151c.391.105.755.077 1.088-.087.331-.163.624-.457.882-.875l-.133-.082zm-1.796.893c-.422-.113-.738-.354-.952-.726l-.136.078c.236.409.586.675 1.047.799l.041-.151zm-.951-.724c-.208-.382-.261-.74-.17-1.08l-.152-.04c-.103.386-.039.785.184 1.195l.138-.075zm2.072 13.329c-.463-.124-.828-.38-1.098-.769l-.128.089c.291.42.687.698 1.185.832l.041-.152zm-1.097-.767c-.255-.389-.315-.85-.17-1.392l-.151-.041c-.155.577-.094 1.086.191 1.519l.13-.086zm-.17-1.392c.128-.477.4-.83.819-1.066l-.077-.136c-.456.256-.755.645-.893 1.161l.151.041zm.819-1.066c.419-.235.869-.289 1.355-.159l.04-.151c-.523-.14-1.015-.083-1.472.174l.077.136zm1.355-.159c.477.128.832.397 1.069.808l.136-.078c-.259-.449-.649-.743-1.165-.881l-.04.151zm1.069.808c.237.411.293.853.165 1.33l.151.041c.138-.516.079-1.001-.18-1.449l-.136.078zm.165 1.33c-.143.534-.424.9-.84 1.108l.07.14c.463-.232.769-.638.921-1.207l-.151-.041zm-.84 1.108c-.423.212-.855.258-1.301.138l-.041.152c.484.129.956.079 1.412-.15l-.07-.14z"/>
</svg>
