<svg xmlns="http://www.w3.org/2000/svg" width="202" height="180" fill="none" viewBox="0 0 202 180">
    <circle cx="102" cy="90" r="80" fill="#fff"/>
    <circle cx="102" cy="90" r="83" stroke="#fff" stroke-opacity=".2" stroke-width="6"/>
    <mask id="qku8fiu3pa" width="160" height="160" x="22" y="10" maskUnits="userSpaceOnUse">
        <circle cx="102" cy="90" r="80" fill="#fff"/>
    </mask>
    <g mask="url(#qku8fiu3pa)">
        <path fill="#3E3A49" stroke="#3E3A49" stroke-width=".783" d="M107.672 91.485c0 1.91-1.549 3.46-3.46 3.46s-3.461-1.55-3.461-3.46c0-1.911 1.55-3.46 3.461-3.46 1.911 0 3.46 1.549 3.46 3.46zM135.572 91.485c0 1.91-1.549 3.46-3.46 3.46s-3.46-1.55-3.46-3.46c0-1.911 1.549-3.46 3.46-3.46s3.46 1.549 3.46 3.46z"/>
        <mask id="eiy4wn03ub" fill="#fff">
            <path d="M134.187 131.961h-5.847v-2.229h3.381c10.008 0 18.15-8.142 18.15-18.15v-4.83c4.993-1.252 8.703-5.777 8.703-11.153 0-5.295-3.701-9.882-8.703-11.147v-3.74c0-17.487-14.225-31.712-31.71-31.712s-31.71 14.225-31.71 31.71v3.742c-5.002 1.265-8.704 5.851-8.704 11.147 0 5.376 3.71 9.9 8.704 11.152v4.831c0 10.008 8.141 18.149 18.149 18.149h3.381v2.229h-5.844c-13.448 0-24.39 10.942-24.39 24.39v16.039c0 1.08.877 1.956 1.957 1.956h76.914c1.08 0 1.957-.876 1.957-1.956V156.35c0-13.447-10.94-24.388-24.388-24.389zm15.684-35.814v-7.593c2.808 1.126 4.79 3.896 4.79 7.045 0 3.194-1.988 5.93-4.79 7.045v-6.497zm-63.42 0v6.497c-2.802-1.115-4.79-3.851-4.79-7.046 0-3.148 1.983-5.918 4.79-7.045v7.594zm45.779 39.727v1.794c0 3.338-2.716 6.055-6.055 6.055-3.339 0-6.055-2.717-6.055-6.055v-1.794h12.11zm-14.069-3.913h-6.266v-4.724c0 .127 2.553.404 2.788.429 1.005.11 2.014.172 3.024.187 2.02.028 4.043-.134 6.033-.488.229-.04.459-.082.687-.127v4.723h-6.266zm27.797-20.379c0 7.85-6.386 14.236-14.236 14.236h-2.358c.112-.043.223-.09.334-.133l.231-.093c3.441-1.38 6.628-3.372 9.392-5.841 1.481-1.322 2.839-2.783 4.045-4.36.969-1.267 1.834-2.591 2.592-3.962v.153zM90.364 80.711c0-15.328 12.47-27.798 27.797-27.798 15.328 0 27.797 12.47 27.797 27.797v2.962c-9.96-2.203-20.579-7.716-25.389-17.146l-.113-.225c-.309-.627-.443-.995-.447-1.004-.274-.787-1.015-1.313-1.848-1.313-.802 0-1.516.492-1.812 1.232-.01.025-.024.048-.033.073-.009.027-.71 1.94-2.63 4.55l-.014.019-.175.234-.13.17-.06.079c-1.652 2.135-4.105 4.67-7.637 7.038l-.063.041c-.159.107-.321.212-.484.318l-.425.269-.173.108c-4.755 2.925-9.85 4.598-14.16 5.555v-2.96h-.001zm14.236 45.107c-7.85 0-14.236-6.386-14.236-14.236v-.153c.758 1.372 1.623 2.696 2.592 3.963 2.247 2.938 5.02 5.472 8.134 7.467 1.676 1.075 3.455 1.991 5.303 2.734l.231.092c.111.044.222.091.333.133H104.6zm3.2-3.935c-9.633-3.941-16.558-13.272-17.357-23.674-.268-3.486-.08-7.041-.08-10.535 0-.12 5.63-1.418 6.164-1.591 2.208-.717 4.36-1.605 6.432-2.653 5.608-2.835 10.782-6.786 14.386-11.978.301-.434.572-.849.816-1.24.973 1.566 2.391 3.503 4.385 5.534.128.132.261.264.397.398l.142.138c3.23 3.147 7.147 5.668 11.218 7.602 3.71 1.763 7.642 2.963 11.654 3.79 0 6.345.439 12.763-1.981 18.778-1.909 4.744-5.173 8.897-9.271 11.946-4.485 3.337-9.945 5.327-15.54 5.53-3.948.143-7.814-.592-11.365-2.045zm-3.706 13.991h12.11v1.794c0 3.338-2.716 6.055-6.055 6.055-3.339 0-6.055-2.717-6.055-6.055v-1.794zm-22.433 34.558v-14.081c0-10.631 8.144-19.392 18.52-20.381v1.698c0 5.496 4.472 9.968 9.968 9.968 3.28 0 6.195-1.593 8.013-4.046 1.818 2.452 4.733 4.046 8.013 4.046 5.496 0 9.968-4.472 9.968-9.968v-1.698c10.375.99 18.518 9.751 18.518 20.38v14.082h-73z"/>
        </mask>
        <path fill="#3E3A49" stroke="#3E3A49" stroke-width="1.567" d="M134.187 131.961h0-5.847v-2.229h3.381c10.008 0 18.15-8.142 18.15-18.15v-4.83c4.993-1.252 8.703-5.777 8.703-11.153 0-5.295-3.701-9.882-8.703-11.147v-3.74c0-17.487-14.225-31.712-31.71-31.712s-31.71 14.225-31.71 31.71v3.742c-5.002 1.265-8.704 5.851-8.704 11.147 0 5.376 3.71 9.9 8.704 11.152v4.831c0 10.008 8.141 18.149 18.149 18.149h3.381v2.229h-5.844c-13.448 0-24.39 10.942-24.39 24.39v16.039c0 1.08.877 1.956 1.957 1.956h76.914c1.08 0 1.957-.876 1.957-1.956V156.35c0-13.447-10.94-24.388-24.388-24.389zm15.684-35.814v-7.593c2.808 1.126 4.79 3.896 4.79 7.045 0 3.194-1.988 5.93-4.79 7.045v-6.497zm-63.42 0v6.497c-2.802-1.115-4.79-3.851-4.79-7.046 0-3.148 1.983-5.918 4.79-7.045v7.594zm45.779 39.727v1.794c0 3.338-2.716 6.055-6.055 6.055-3.339 0-6.055-2.717-6.055-6.055v-1.794h12.11zm-14.069-3.913h-6.266v-4.724c0 .127 2.553.404 2.788.429 1.005.11 2.014.172 3.024.187 2.02.028 4.043-.134 6.033-.488.229-.04.459-.082.687-.127v4.723h-6.266zm27.797-20.379h0c0 7.85-6.386 14.236-14.236 14.236h-2.358c.112-.043.223-.09.334-.133l.231-.093c3.441-1.38 6.628-3.372 9.392-5.841 1.481-1.322 2.839-2.783 4.045-4.36.969-1.267 1.834-2.591 2.592-3.962v.153h0zM90.364 80.711h0c0-15.328 12.47-27.798 27.797-27.798 15.328 0 27.797 12.47 27.797 27.797v2.962c-9.96-2.203-20.579-7.716-25.389-17.146l-.113-.225c-.309-.627-.443-.995-.447-1.004-.274-.787-1.015-1.313-1.848-1.313-.802 0-1.516.492-1.812 1.232-.01.025-.024.048-.033.073-.009.027-.71 1.94-2.63 4.55l-.014.019-.175.234-.13.17-.06.079c-1.652 2.135-4.105 4.67-7.637 7.038l-.063.041c-.159.107-.321.212-.484.318l-.425.269-.173.108c-4.755 2.925-9.85 4.598-14.16 5.555v-2.96h-.001zm14.236 45.107v0c-7.85 0-14.236-6.386-14.236-14.236v-.153c.758 1.372 1.623 2.696 2.592 3.963 2.247 2.938 5.02 5.472 8.134 7.467 1.676 1.075 3.455 1.991 5.303 2.734l.231.092c.111.044.222.091.333.133H104.6zm3.2-3.935c-9.633-3.941-16.558-13.272-17.357-23.674-.268-3.486-.08-7.041-.08-10.535 0-.12 5.63-1.418 6.164-1.591 2.208-.717 4.36-1.605 6.432-2.653 5.608-2.835 10.782-6.786 14.386-11.978.301-.434.572-.849.816-1.24.973 1.566 2.391 3.503 4.385 5.534.128.132.261.264.397.398l.142.138c3.23 3.147 7.147 5.668 11.218 7.602 3.71 1.763 7.642 2.963 11.654 3.79 0 6.345.439 12.763-1.981 18.778-1.909 4.744-5.173 8.897-9.271 11.946-4.485 3.337-9.945 5.327-15.54 5.53-3.948.143-7.814-.592-11.365-2.045zm-3.706 13.991h12.11v1.794c0 3.338-2.716 6.055-6.055 6.055-3.339 0-6.055-2.717-6.055-6.055v-1.794zm-22.433 34.558v-14.081c0-10.631 8.144-19.392 18.52-20.381v1.698c0 5.496 4.472 9.968 9.968 9.968 3.28 0 6.195-1.593 8.013-4.046 1.818 2.452 4.733 4.046 8.013 4.046 5.496 0 9.968-4.472 9.968-9.968v-1.698c10.375.99 18.518 9.751 18.518 20.38v14.082h-73z" mask="url(#eiy4wn03ub)"/>
        <path fill="#3E3A49" stroke="#3E3A49" stroke-width=".783" d="M127.172 105.227h0c-1.931 1.383-5.392 2.205-9.01 2.205-3.62 0-7.081-.823-9.012-2.207h0c-.703-.504-1.68-.342-2.184.361h0c-.503.702-.342 1.68.361 2.184 2.413 1.73 6.458 2.792 10.835 2.792 4.375 0 8.419-1.062 10.833-2.791.702-.503.864-1.481.361-2.183l-2.184-.361zm0 0c.703-.504 1.68-.342 2.184.361l-2.184-.361z"/>
        <circle cx="66.359" cy="125.728" r="9.401" stroke="#3E3A49" stroke-width="3.917"/>
        <path fill="#fff" stroke="#3E3A49" stroke-width="3.917" d="M62.062 153.27c-1.064-5.553 2.568-10.918 8.118-11.992 5.477-1.06 10.796 2.453 11.97 7.907l4.992 23.202H65.725l-3.663-19.117z"/>
    </g>
    <rect width="85" height="39" y="45" fill="#fff" rx="19.5"/>
    <rect width="85" height="39" y="45" fill="#4E5BD4" fill-opacity=".5" rx="19.5"/>
    <circle cx="50.5" cy="64.5" r="5.5" fill="#fff"/>
    <rect width="10" height="10" x="15" y="60" fill="#fff" rx="2"/>
    <rect width="8.851" height="8.851" x="66.074" y="58" fill="#fff" rx="2" transform="rotate(45 66.0742 58)"/>
    <path fill="#fff" d="M33.614 61.4c.455-.788.682-1.181.98-1.313.258-.116.554-.116.813 0 .297.132.524.525.979 1.313l3.29 5.7c.455.788.683 1.181.649 1.505-.03.281-.178.537-.407.704-.263.191-.718.191-1.627.191h-6.582c-.91 0-1.364 0-1.627-.191-.23-.167-.377-.423-.407-.704-.034-.324.194-.717.648-1.505l3.291-5.7z"/>
    <path stroke="#3E3A49" stroke-linecap="round" stroke-linejoin="round" stroke-width="3.917" d="M55 77.5l8.519 36.87"/>
    <rect width="39.17" height="39.17" x="126.673" y="9.673" fill="#fff" rx="19.585"/>
    <rect width="39.17" height="39.17" x="126.673" y="9.673" fill="#FFCD4D" fill-opacity=".7" rx="19.585"/>
    <path stroke="#fff" stroke-linecap="round" stroke-linejoin="round" stroke-width="2.75" d="M134.875 29.173h1.292M146.5 17.548v1.292m10.333 10.333h1.292m-19.892-8.266l.905.904m15.629-.904l-.904.904M142.625 34.34c-1.085-.813-1.886-1.947-2.29-3.24-.404-1.295-.391-2.683.038-3.969s1.251-2.404 2.351-3.197c1.099-.792 2.42-1.219 3.776-1.219 1.355 0 2.676.427 3.776 1.22 1.1.792 1.922 1.91 2.351 3.196.428 1.286.442 2.674.037 3.968-.404 1.294-1.205 2.428-2.289 3.241-.504.5-.884 1.11-1.109 1.783-.224.674-.287 1.39-.183 2.092 0 .685-.272 1.342-.756 1.827-.485.484-1.142.756-1.827.756s-1.342-.272-1.827-.756c-.484-.485-.756-1.142-.756-1.827.103-.702.041-1.418-.184-2.092-.224-.673-.604-1.284-1.108-1.783M143.529 35.632h5.942"/>
</svg>
