<svg xmlns="http://www.w3.org/2000/svg" width="160" height="40" fill="none" viewBox="0 0 160 40">
    <path fill="#3E3A49" d="M77.77 30.251c-.077-.98-.644-1.833-1.522-2.272-1.033-.516-2.298-.361-3.15.44-.749.696-1.678 1.058-2.737 1.058-2.194 0-4.57-1.472-4.57-4.673 0-3.02 2.298-4.622 4.57-4.622 1.059 0 1.988.362 2.737 1.059.852.774 2.117.955 3.15.439.877-.44 1.445-1.291 1.523-2.272.077-.955-.336-1.885-1.11-2.453-1.627-1.213-3.796-1.833-6.274-1.833-6.377 0-10.818 3.976-10.818 9.682 0 5.757 4.441 9.759 10.818 9.759 2.453 0 4.621-.646 6.274-1.833.774-.594 1.187-1.523 1.11-2.479zM114.691 18.762c0-1.859-1.523-3.356-3.357-3.356h-1.549c-.852 0-1.549.697-1.549 1.55v.283l-.206-.207c-1.239-1.29-2.995-1.936-5.215-1.936-5.448 0-9.243 3.976-9.243 9.682 0 5.757 3.795 9.759 9.243 9.759 2.504 0 4.311-.723 5.525-2.169l.206-.232v.31c0 .98.8 1.781 1.782 1.781h.722c1.988 0 3.615-1.626 3.615-3.614v-11.85h.026zm-10.456 10.689c-2.453 0-4.131-1.885-4.131-4.673 0-2.763 1.652-4.621 4.131-4.621 2.452 0 4.13 1.858 4.13 4.62-.025 2.815-1.678 4.674-4.13 4.674zM139.966 33.685c1.781.542 3.872.852 5.86.852 5.655 0 9.295-2.4 9.295-6.144 0-4.648-4.415-5.293-7.616-5.758-2.014-.284-3.589-.516-3.589-1.6 0-.44.31-1.446 3.176-1.446 1.213 0 2.401.18 3.537.542 1.136.361 2.323-.155 2.788-1.214l.052-.129c.258-.593.258-1.29-.026-1.884-.284-.594-.801-1.033-1.42-1.188-1.524-.413-3.279-.645-4.957-.645-5.577 0-9.166 2.426-9.166 6.222 0 4.724 4.467 5.318 7.72 5.757 1.962.258 3.537.465 3.537 1.523 0 .981-.955 1.42-3.098 1.42-1.498 0-3.15-.284-4.596-.8-.258-.078-.516-.13-.774-.13-.904 0-1.782.543-2.169 1.42-.258.62-.258 1.317.026 1.937.232.594.774 1.059 1.42 1.265zM120.447 33.685c1.782.542 3.873.852 5.861.852 5.654 0 9.294-2.4 9.294-6.144 0-4.648-4.415-5.293-7.616-5.758-2.014-.284-3.589-.516-3.589-1.6 0-.44.31-1.446 3.176-1.446 1.213 0 2.401.18 3.537.542 1.11.361 2.324-.155 2.788-1.214l.052-.129c.258-.593.258-1.29-.026-1.884-.284-.594-.8-1.033-1.42-1.188-1.523-.413-3.279-.645-4.957-.645-5.576 0-9.165 2.426-9.165 6.222 0 4.724 4.466 5.318 7.719 5.757 1.963.258 3.537.465 3.537 1.523 0 .981-.955 1.42-3.098 1.42-1.497 0-3.15-.284-4.595-.8-.258-.078-.517-.13-.775-.13-.903 0-1.781.543-2.169 1.42-.258.62-.258 1.317.026 1.937.233.594.775 1.059 1.42 1.265zM92.074 31.49l-.026-.49c-.051-.774-.697-1.394-1.471-1.394-1.394 0-2.195-.826-2.195-2.298V14.683c0-1.781-1.446-3.227-3.227-3.227s-3.227 1.446-3.227 3.227V27.67c0 4.363 2.659 6.867 7.306 6.867h.026c.774 0 1.497-.31 2.04-.903.516-.568.8-1.343.774-2.143z"/>
    <path fill="#00A2FF" d="M41.342 24.855c-2.918 2.918-7.668 2.918-10.586 0-2.917-2.917-2.917-7.667 0-10.585 2.918-2.917 7.668-2.917 10.586 0 1.549 1.55 4.053 1.55 5.576 0 1.55-1.549 1.55-4.053 0-5.576-6.015-6.016-15.749-6.016-21.764 0-5.55 5.55-5.964 14.277-1.24 20.318l-3.769 3.77c-.8.8-.232 2.168.904 2.168h15.026c3.924 0 7.848-1.497 10.843-4.492 1.55-1.55 1.55-4.053 0-5.577-1.549-1.575-4.053-1.575-5.576-.026z"/>
    <path fill="#FFA24D" d="M20.145 32.782l3.77-3.77c-4.725-6.041-4.312-14.768 1.239-20.319 1.084-1.084 2.272-1.962 3.563-2.633-2.401-1.317-5.216-1.988-8.185-1.833-7.822.387-14.174 6.79-14.51 14.639-.154 3.77 1.008 7.229 3.099 9.991l-3.899 3.899c-.8.8-.232 2.168.904 2.168h14.923c-1.136 0-1.704-1.368-.904-2.142z"/>
</svg>
